<svg width="1280" height="1280" viewBox="0 0 1280 1280" fill="none" xmlns="http://www.w3.org/2000/svg">
<g id="2147499 1">
<g id="topMiddle">
<path id="Vector" d="M612.3 67.8C602 76.1 592 88.9 585.3 102.7C582.8 107.8 580.6 113.8 580.3 116C579.6 120.9 581.2 123.2 595 137.5C600.3 143 607 150.4 609.9 153.8C618.5 164.3 624 177.4 624 187.1C624 189.8 624.6 192.2 625.4 192.9C627 194.3 642.7 196.6 643.7 195.6C644.1 195.2 644.7 190.1 645 184.2C645.5 174.5 645.9 172.9 648.9 167.3C652.8 160 658.1 154.3 670.3 144.2C677.4 138.2 679 136.4 679 134.1C679 129.1 673.5 123.2 644.2 96.2C632.9 85.7 626.1 77.4 621.9 68.7C620.6 66.1 619.1 64 618.4 64C617.7 64 615 65.7 612.3 67.8Z" fill="url(#paint0_linear)"/>
</g>
<g id="rightTopMiddle">
<path id="rightTopMiddle_2" d="M538 89.9C520.7 102.1 504.6 120.3 495 138.5C492.1 143.9 491 151 492.9 151C495.2 151 501.1 144.7 510.7 132C510.9 131.8 512.3 133.1 513.8 135C519.7 142.9 532.3 154.9 545.5 165.5C561.1 178.1 565.7 182.6 571.5 191.7C576.6 199.6 579.2 200.8 585.7 198.5C588.4 197.5 595.1 196.5 601 196.1L611.4 195.5L613.8 192C619.8 183.2 612.1 169.4 584.7 139.6C566.9 120.3 559.8 110.8 554.3 99C551.8 93.8 549.5 88.8 549.1 88C547.7 85.2 543.7 85.9 538 89.9Z" fill="url(#paint1_linear)"/>
</g>
<g id="rightTop">
<path id="Vector_2" d="M478.5 104.7C466.5 116.6 446.4 155.3 440.2 178.5C437.8 187.6 437.5 190.1 437.6 206.5C437.6 222.1 438 226.3 440.4 237.8C443.8 254.6 446.8 263.3 449.4 263.8C451.2 264.2 451.3 263.8 450.4 256.4C446.9 225.7 455.1 193 471.2 173C477.3 165.4 479.3 161.1 482 149.7C484.4 139.1 486 135.3 490 129.7L493.1 125.4L489.6 118.8C487.7 115.2 485.6 109.7 484.9 106.6C484.2 103.5 483.4 101 483 101C482.6 101 480.6 102.7 478.5 104.7Z" fill="url(#paint2_linear)"/>
</g>
<g id="rightMiddleExternal">
<path id="Vector_3" d="M846.5 106.5C827.7 109.5 809.2 119 796.2 132.3L791.9 136.7L798.6 146.6C815.6 171.5 829 212.6 829 239.6C829 257.4 822.1 278.2 809.8 297.8C807.6 301.2 806 304.4 806.3 304.7C808.1 306.4 813.3 302.8 822.9 293.2C834.6 281.5 851.4 260.4 855.4 252.5C859.4 244.7 862.1 226.5 862.2 208C862.3 190 860.7 181 855.3 168C847 147.9 847.2 132.9 855.9 115.6C861.5 104.5 861.1 104.1 846.5 106.5Z" fill="url(#paint3_linear)"/>
<path id="Vector_4" d="M771.7 115.7C771.3 116 771 118.1 771 120.2C771 122.3 770.1 125.7 769 127.7C765.6 134.1 766.7 140.3 770.9 138C773.9 136.5 775 133.1 775 125.7L775.1 119.5L781.5 126.2C788.3 133.4 790.6 134.3 793.5 131C795.9 128.4 795 127.4 783.7 120.6C774.5 115 772.9 114.4 771.7 115.7Z" fill="url(#paint4_linear)"/>
</g>
<g id="middle">
<path id="Vector_5" d="M700.3 125.6C698.2 128.1 690.2 135.3 682.5 141.5C674.8 147.6 665.7 155.7 662.3 159.3C651.9 170.5 647 183.4 650.3 191.3C652.2 195.8 656.2 198.3 664.9 200.5C668.5 201.4 675 203.7 679.2 205.7L687 209.3L700.3 196.4C707.6 189.3 715.2 182.4 717.3 181C722.4 177.6 724.4 173 723.7 166.4C723.1 160.5 715.8 137.9 711.2 127.7C707.4 119.4 705.7 119.1 700.3 125.6Z" fill="url(#paint5_linear)"/>
</g>
<g id="leftMiddleExternal">
<path id="Vector_6" d="M342.7 126.3C342.4 127 344.4 132.5 347.1 138.6C356.3 159.3 359.8 178.5 358.6 201.9C357.5 225.2 361.3 252.7 367.2 264.9C370 270.8 370.4 271.2 371.6 269.5C373.4 267 373.4 263.6 371.4 259.8C370 257 370 256.2 371.3 251.1C372.1 248 373.1 243.8 373.5 241.7C373.8 239.7 374.3 238 374.5 238C374.7 238 378.3 240.2 382.5 242.9C386.7 245.7 392.7 248.9 395.8 250C400.6 251.9 433.9 258.5 434.6 257.7C435.1 257.1 429.2 224.2 428.2 222.4C427.6 221.2 427.2 218.1 427.2 215.4C427.3 212.5 426.6 208.9 425.5 206.7C422.6 200.4 398.6 172.4 382.1 156C367.5 141.4 347.6 125 344.6 125C343.8 125 343 125.6 342.7 126.3Z" fill="url(#paint6_linear)"/>
</g>
<g id="middleRightTop">
<path id="Vector_7" d="M731.2 129.2C730.5 129.9 730 131.7 730 133.3C730 134.8 729.5 137 729 138.1C727.1 141.6 726.2 149.3 727 154.9C728.3 164.1 729.9 169 731.6 169C732.5 169 736 166.8 739.4 164.1C742.7 161.5 747.4 158.1 749.8 156.6C753.1 154.5 754 153.4 754 151.2C754 147.4 749.4 140.6 742.1 133.7C736.2 128 733.5 126.9 731.2 129.2Z" fill="url(#paint7_linear)"/>
</g>
<g id="rightMiddle">
<path id="rightMiddle_2" d="M773.7 148.4C770 152 761.9 158.6 755.7 163.2C749.6 167.8 738.2 176.3 730.5 182.1C712.6 195.5 699 208.8 691.2 220.7C684.3 231.3 681.7 238.1 681.8 245.7C681.9 252.7 684.1 256.5 691.3 261.4C698.7 266.4 706.9 275.3 711 282.7C714.8 289.4 717.8 293 719.6 293C721.5 293 724 289 724 286C724 280.8 728.6 279.3 731.5 283.6C738.9 295 746.9 314.6 750.9 331.7C753.8 344.1 753.8 344.1 761.9 337.3C788.3 315.4 809.6 286.3 816.2 263.3C818.1 256.6 818.5 253.1 818.4 238.5C818.4 225.9 818 219.3 816.6 213C813.7 199.3 808.2 183.3 802.3 171.5C795.7 158.1 785.1 142.6 782.4 142.3C781.2 142.1 777.9 144.5 773.7 148.4Z" fill="url(#paint8_linear)"/>
</g>
<g id="leftMiddle">
<path id="leftMiddle_2" d="M504.3 153.7C475 177.3 466.1 191.1 460 222.5C454.1 253.1 461.2 275.7 484.5 300.8C493.9 310.9 507.6 322 510.8 322H513.6L513.2 312.4C512.7 300.7 514 293.9 518.6 284.4C525.6 270.1 537.9 258.3 556.9 247.5C569.5 240.4 572.1 237.6 572.8 231.1C573.4 224.2 569.7 208.8 565.3 199.9C560.7 190.7 553.7 183.3 538.4 171.4C531.4 166 522.9 158.8 519.4 155.3C515.8 151.8 512.3 149 511.5 149C510.7 149 507.5 151.1 504.3 153.7Z" fill="url(#paint9_linear)"/>
</g>
<g id="centerMiddle">
<path id="Vector_8" d="M607.1 201.5C605.3 202.3 601.2 203 598.1 203C590.5 203.1 585.3 204.4 582.4 207.1C580.4 209 580 210.2 580.1 215.4C580.2 225.3 581.3 230.4 583.3 230.8C586.2 231.4 597.2 225.6 601.7 221.3C603.9 219 607 215.1 608.5 212.6C611.8 206.9 614 206.7 616.4 212C619.1 218.3 625.4 222.9 648.5 235.4C671.7 248.1 673 248.4 673 241.6C673 236.8 675.8 228.1 679.2 222.6C683.1 216.2 682.5 213.5 676.5 210.9C660.1 203.7 615.6 197.6 607.1 201.5Z" fill="url(#paint10_linear)"/>
</g>
<g id="centerBottom">
<path id="centerBottom_2" d="M604.5 230C600.7 232.6 589.9 239 580.5 244.1C558.5 256 547.8 263.4 539.1 272.5C526.9 285.4 522 296.7 522 311.9C522 326.4 527.9 346.4 538.5 367.7C546.3 383.5 554.8 395.7 566 406.9C574.7 415.6 588.5 426 591.4 426C593.7 426 593.4 423.6 590.9 421.4C587 418 579.1 405.9 576.9 400.1C573.6 391.5 573.2 379 575.9 370.4C582.8 348.1 605.5 335.1 685.2 307.6C708.6 299.5 710.4 297.3 703 286.2C694.1 273 681.4 263.4 650.1 246.8C638.8 240.7 626 233.4 621.8 230.4C617.5 227.4 613.5 225 612.8 225.1C612.1 225.1 608.4 227.3 604.5 230Z" fill="url(#paint11_linear)"/>
</g>
<g id="rightBottom">
<path id="Vector_9" d="M888.1 243.1C876.3 245.4 866.9 253.6 848.9 277.1C833.9 296.9 824.1 306.3 813 311.9C808.5 314.1 803.8 316 802.7 316C798.1 316 792 320.3 783.6 329.5C778.8 334.7 770.6 342.1 765.4 346C760.2 349.9 755.6 353.9 755.1 354.8C754.6 355.7 753.9 359.6 753.5 363.5C752.6 372.3 749.9 382.9 746.4 391.6L743.7 398.4L746 400.2C747.5 401.5 749.9 402 753.8 402C756.9 402 760.9 402.5 762.7 403.2C770.1 405.9 792.7 400.4 808.7 392C821.8 385.2 831.6 377.5 847 362C869.2 339.7 880.5 321.1 887.6 295C889.6 287.6 892.5 278.7 894 275.3C897.6 267.4 904.7 260.2 912.5 256.6C921 252.8 921.5 252.5 921.8 250.6C922.2 248.5 915.5 245.4 906.2 243.5C898.8 241.9 894.7 241.8 888.1 243.1Z" fill="url(#paint12_linear)"/>
</g>
<g id="leftBottom">
<path id="Vector_10" d="M380 255.5C378.3 257.6 379.4 271.6 382 283C392.6 327.8 415 360.5 456.3 391.4C467.7 399.8 475.9 404 490.9 409C516.5 417.6 553.7 424.6 560.3 422.1C564.9 420.3 564.2 418.5 556 409.4C541.6 393.7 529.7 374.1 522 353.5C519.7 347.5 517.1 341.3 516.2 339.7C515.3 338.2 509.8 333.7 504 329.7C490.2 320.2 475.8 306.3 467.9 294.7C459.2 282.2 453.7 276.9 444.8 272.7C434.7 267.9 426.2 265.4 413 263.5C399.9 261.6 390.4 258.9 386.7 256C383.7 253.6 381.7 253.5 380 255.5Z" fill="url(#paint13_linear)"/>
</g>
<g id="centerLeft">
<path id="Vector_11" d="M723.5 300.6C718.4 304.6 704 310.7 682.4 318C643.4 331.2 610.3 345.5 598.9 354C588.2 361.9 583.7 370.7 583.8 383.5C583.9 417.3 620.3 438.5 666.3 431.5C689.5 428 715.6 415.5 728.7 401.7C747.9 381.5 750 341.1 733.7 308C729.2 299 727.3 297.6 723.5 300.6Z" fill="url(#paint14_linear)"/>
</g>
<path id="Vector_12" d="M931.5 1048C931.2 1048.5 931.4 1049 931.9 1049C932.5 1049 933 1048.5 933 1048C933 1047.4 932.8 1047 932.6 1047C932.3 1047 931.8 1047.4 931.5 1048Z" fill="url(#paint15_linear)"/>
</g>
<defs>
<linearGradient id="paint0_linear" x1="629.582" y1="195.845" x2="629.582" y2="64" gradientUnits="userSpaceOnUse">
<stop/>
<stop offset="1" stop-color="#FF0000"/>
</linearGradient>
<linearGradient id="paint1_linear" x1="553.834" y1="199.54" x2="553.834" y2="86.307" gradientUnits="userSpaceOnUse">
<stop/>
<stop offset="1" stop-color="#FF0000"/>
</linearGradient>
<linearGradient id="paint2_linear" x1="465.342" y1="263.905" x2="465.342" y2="101" gradientUnits="userSpaceOnUse">
<stop/>
<stop offset="1" stop-color="#FF0000"/>
</linearGradient>
<linearGradient id="paint3_linear" x1="827.052" y1="305.106" x2="827.052" y2="105.309" gradientUnits="userSpaceOnUse">
<stop/>
<stop offset="1" stop-color="#FF0000"/>
</linearGradient>
<linearGradient id="paint4_linear" x1="780.787" y1="138.49" x2="780.787" y2="115.123" gradientUnits="userSpaceOnUse">
<stop/>
<stop offset="1" stop-color="#FF0000"/>
</linearGradient>
<linearGradient id="paint5_linear" x1="686.558" y1="209.3" x2="686.558" y2="121.063" gradientUnits="userSpaceOnUse">
<stop/>
<stop offset="1" stop-color="#FF0000"/>
</linearGradient>
<linearGradient id="paint6_linear" x1="388.65" y1="270.375" x2="388.65" y2="125" gradientUnits="userSpaceOnUse">
<stop/>
<stop offset="1" stop-color="#FF0000"/>
</linearGradient>
<linearGradient id="paint7_linear" x1="740.354" y1="169" x2="740.354" y2="128.076" gradientUnits="userSpaceOnUse">
<stop/>
<stop offset="1" stop-color="#FF0000"/>
</linearGradient>
<linearGradient id="paint8_linear" x1="750.106" y1="341.855" x2="750.106" y2="142.288" gradientUnits="userSpaceOnUse">
<stop/>
<stop offset="1" stop-color="#FF0000"/>
</linearGradient>
<linearGradient id="paint9_linear" x1="515.446" y1="322" x2="515.446" y2="149" gradientUnits="userSpaceOnUse">
<stop/>
<stop offset="1" stop-color="#FF0000"/>
</linearGradient>
<linearGradient id="paint10_linear" x1="630.876" y1="246.019" x2="630.876" y2="200.283" gradientUnits="userSpaceOnUse">
<stop/>
<stop offset="1" stop-color="#FF0000"/>
</linearGradient>
<linearGradient id="paint11_linear" x1="614.437" y1="426" x2="614.437" y2="225.097" gradientUnits="userSpaceOnUse">
<stop/>
<stop offset="1" stop-color="#FF0000"/>
</linearGradient>
<linearGradient id="paint12_linear" x1="832.758" y1="403.893" x2="832.758" y2="242.204" gradientUnits="userSpaceOnUse">
<stop/>
<stop offset="1" stop-color="#FF0000"/>
</linearGradient>
<linearGradient id="paint13_linear" x1="471.16" y1="422.613" x2="471.16" y2="254.092" gradientUnits="userSpaceOnUse">
<stop/>
<stop offset="1" stop-color="#FF0000"/>
</linearGradient>
<linearGradient id="paint14_linear" x1="664.222" y1="432.835" x2="664.222" y2="299.174" gradientUnits="userSpaceOnUse">
<stop/>
<stop offset="1" stop-color="#FF0000"/>
</linearGradient>
<linearGradient id="paint15_linear" x1="932.18" y1="1049" x2="932.18" y2="1047" gradientUnits="userSpaceOnUse">
<stop/>
<stop offset="1" stop-color="#FF0000"/>
</linearGradient>
</defs>
</svg>
