<?xml version="1.0" standalone="no"?>
<!DOCTYPE svg PUBLIC "-//W3C//DTD SVG 20010904//EN"
 "http://www.w3.org/TR/2001/REC-SVG-20010904/DTD/svg10.dtd">
<svg version="1.0" xmlns="http://www.w3.org/2000/svg"
 width="1280.000000pt" height="1280.000000pt" viewBox="0 0 1280.000000 1280.000000"
 preserveAspectRatio="xMidYMid meet">
<metadata>
Created by potrace 1.15, written by Peter Selinger 2001-2017
</metadata>
<g transform="translate(0.000000,1280.000000) scale(0.100000,-0.100000)"
fill="#000000" stroke="none">
<path d="M6135 4268 c-167 -158 -295 -359 -295 -464 0 -81 25 -71 99 38 39 59
100 101 175 123 122 36 207 -1 471 -200 99 -75 192 -143 207 -151 31 -16 71
-19 66 -5 -1 6 -107 118 -235 249 -128 132 -253 264 -279 293 -46 55 -104 156
-104 184 0 27 -17 16 -105 -67z"/>
<path d="M4933 4088 c-44 -49 -209 -275 -284 -391 -231 -351 -335 -695 -300
-984 14 -116 56 -262 82 -288 l20 -20 -6 70 c-4 39 -2 136 4 216 24 324 93
589 222 859 70 146 99 187 146 207 47 19 86 9 127 -33 l33 -34 6 67 c9 86 9
316 1 337 -9 22 -27 20 -51 -6z"/>
<path d="M5415 4062 c-148 -88 -200 -126 -281 -207 -66 -66 -89 -98 -127 -175
-45 -92 -82 -225 -75 -270 3 -19 5 -20 25 -5 12 8 43 52 70 97 65 109 147 192
231 231 59 28 77 32 147 31 142 -2 255 -63 415 -224 110 -110 215 -247 332
-433 l83 -131 3 49 c5 73 -38 198 -99 289 -52 79 -128 159 -320 341 -161 153
-239 264 -279 395 -9 30 -23 56 -31 58 -8 1 -50 -19 -94 -46z"/>
<path d="M7498 4023 c-27 -31 -85 -155 -112 -243 -33 -103 -56 -248 -56 -350
0 -129 15 -125 82 21 56 120 137 186 257 209 61 11 66 10 75 -26 12 -48 -38
-129 -143 -234 -76 -75 -140 -125 -305 -234 -287 -190 -389 -295 -446 -460
-23 -64 -31 -169 -14 -186 8 -8 22 13 53 76 57 119 113 195 218 294 98 93 158
132 285 188 78 35 89 37 188 37 105 0 106 0 200 -46 183 -88 258 -211 276
-448 22 -290 -83 -649 -272 -932 -63 -94 -74 -119 -54 -119 20 0 243 226 307
310 269 355 304 798 98 1228 -57 118 -163 301 -224 387 -61 85 -132 155 -223
217 -78 54 -91 67 -119 123 -27 56 -30 71 -27 132 2 55 0 68 -13 71 -8 1 -22
-5 -31 -15z"/>
<path d="M8407 3864 c-134 -24 -290 -100 -397 -192 -35 -30 -50 -51 -50 -68 0
-24 1 -24 30 -9 109 56 264 32 365 -56 91 -80 172 -368 195 -693 8 -120 13
-148 37 -195 l27 -56 9 40 c5 22 6 128 4 235 -4 150 -11 229 -31 340 -55 304
-57 364 -16 473 15 41 36 69 76 106 29 27 54 56 54 64 0 29 -169 35 -303 11z"/>
<path d="M7045 3773 c-22 -30 -127 -140 -233 -242 -291 -279 -362 -375 -362
-485 0 -81 13 -85 44 -14 63 149 209 330 320 397 71 42 154 63 212 52 60 -11
128 -54 161 -102 96 -139 117 -157 107 -87 -12 82 -54 240 -84 312 -25 60
-116 226 -123 226 -1 0 -20 -26 -42 -57z"/>
<path d="M3399 3699 c74 -131 138 -262 165 -339 50 -138 56 -188 54 -472 -2
-207 2 -288 16 -378 22 -145 40 -212 65 -234 19 -18 20 -17 27 8 4 16 0 44 -9
69 -19 51 -37 205 -44 389 -6 161 10 251 61 326 35 53 101 92 153 92 57 0 138
-35 251 -109 60 -39 114 -71 121 -71 29 0 -31 69 -206 237 -298 286 -443 403
-657 533 l-38 23 41 -74z"/>
<path d="M5103 3448 c-238 -201 -353 -333 -437 -503 -76 -154 -90 -217 -90
-395 1 -80 5 -158 11 -175 9 -28 11 -23 32 65 70 290 178 506 320 643 126 122
257 161 397 119 169 -52 296 -170 415 -389 41 -76 54 -70 54 25 0 135 -72 229
-285 372 -150 101 -227 175 -269 258 -17 34 -35 62 -40 62 -6 0 -54 -37 -108
-82z"/>
<path d="M6170 2963 c-137 -13 -284 -54 -299 -81 -5 -10 -6 -24 -2 -31 7 -10
30 -9 117 5 163 28 474 25 654 -5 222 -37 211 -36 204 -17 -11 28 -74 53 -214
86 -186 43 -330 56 -460 43z"/>
<path d="M5954 2724 c-433 -279 -636 -472 -728 -691 -56 -135 -71 -285 -40
-407 31 -125 190 -409 297 -531 31 -35 36 -38 43 -21 5 13 -7 47 -38 110 -92
184 -124 330 -115 531 7 148 20 205 75 319 94 192 279 342 503 406 103 30 285
37 404 17 208 -37 399 -126 560 -262 36 -31 69 -54 72 -51 45 45 -234 291
-612 538 -185 121 -215 138 -248 138 -14 0 -89 -42 -173 -96z"/>
<path d="M9005 2619 c-148 -18 -388 -136 -543 -268 -119 -100 -253 -309 -296
-460 -19 -64 -30 -70 143 77 211 178 311 232 431 232 83 0 100 -18 100 -104 0
-176 -138 -417 -383 -673 -187 -195 -395 -349 -634 -471 -66 -34 -126 -68
-133 -77 -11 -13 -6 -15 42 -15 122 0 322 52 453 117 163 81 344 240 440 383
27 41 120 224 206 405 169 356 212 436 267 497 74 82 173 130 209 102 26 -19
31 -17 38 15 16 73 -55 182 -142 218 -58 25 -118 31 -198 22z"/>
<path d="M3834 2495 c-11 -29 4 -396 21 -505 85 -556 301 -898 690 -1092 152
-77 329 -131 653 -203 166 -37 197 -40 197 -16 0 8 -34 24 -90 40 -453 137
-900 473 -1079 811 -69 131 -99 243 -98 371 0 115 9 144 59 190 116 108 269
84 495 -78 84 -60 267 -233 331 -313 l37 -45 0 35 c0 68 -124 256 -254 385
-155 154 -289 222 -551 281 -204 45 -274 68 -336 110 -29 19 -56 37 -61 40 -4
3 -11 -2 -14 -11z"/>
<path d="M9315 2320 c-3 -5 -1 -10 4 -10 6 0 11 5 11 10 0 6 -2 10 -4 10 -3 0
-8 -4 -11 -10z"/>
<path d="M7261 2074 c-112 -119 -250 -183 -600 -279 -219 -60 -320 -96 -444
-160 -379 -192 -495 -427 -368 -742 28 -70 69 -135 81 -128 15 9 12 51 -4 64
-23 19 -29 99 -12 177 55 265 321 513 689 643 258 91 418 100 563 31 229 -110
249 -394 54 -806 -27 -59 -48 -109 -46 -112 3 -2 22 2 43 8 112 37 214 171
258 339 65 253 15 671 -113 931 -32 66 -62 76 -101 34z"/>
<path d="M5435 650 c3 -5 15 -10 26 -10 10 0 19 5 19 10 0 6 -12 10 -26 10
-14 0 -23 -4 -19 -10z"/>
</g>
</svg>
