<?xml version="1.0" standalone="no"?>
<!DOCTYPE svg PUBLIC "-//W3C//DTD SVG 20010904//EN"
 "http://www.w3.org/TR/2001/REC-SVG-20010904/DTD/svg10.dtd">
<svg version="1.0" xmlns="http://www.w3.org/2000/svg"
 width="1280.000000pt" height="1280.000000pt" viewBox="0 0 1280.000000 1280.000000"
 preserveAspectRatio="xMidYMid meet">
<metadata>
Created by potrace 1.15, written by Peter Selinger 2001-2017
</metadata>
<g transform="translate(0.000000,1280.000000) scale(0.100000,-0.100000)"
fill="#000000" stroke="none">
<path d="M6179 8266 c-136 -107 -282 -291 -366 -460 l-40 -78 -41 48 c-50 58
-103 157 -128 238 -21 66 -48 90 -100 89 -48 -1 -67 -16 -294 -217 -111 -98
-204 -176 -207 -173 -3 3 -11 81 -19 174 -8 92 -15 172 -17 177 -4 12 -157
-161 -243 -276 -101 -136 -177 -261 -255 -423 -66 -137 -162 -400 -175 -483
-7 -42 -17 -54 -27 -29 -13 32 -183 235 -291 346 -130 132 -261 246 -394 343
-96 69 -284 189 -290 184 -2 -2 20 -45 48 -95 107 -189 176 -371 200 -521 6
-41 15 -205 20 -365 10 -307 15 -351 55 -489 69 -237 282 -708 403 -891 229
-344 592 -618 999 -751 200 -65 389 -93 648 -94 77 0 156 -4 175 -9 297 -73
438 -97 620 -107 286 -16 598 74 777 224 92 76 92 76 353 83 246 7 309 15 448
63 191 65 359 172 512 326 186 186 303 378 429 708 38 100 85 205 104 234 74
115 186 186 342 217 47 9 85 19 85 23 0 14 -114 98 -180 133 -36 18 -102 44
-145 56 -142 39 -353 27 -458 -28 l-30 -15 6 38 c42 263 27 451 -55 701 -40
121 -42 134 -43 248 0 132 7 161 77 318 22 49 37 92 33 95 -4 4 -59 7 -123 6
-171 -1 -314 -43 -450 -131 -100 -65 -134 -56 -343 94 -68 49 -139 99 -158
113 l-34 24 7 -52 c16 -122 26 -324 20 -409 l-7 -92 -37 57 c-20 31 -62 80
-94 109 -60 55 -176 119 -199 110 -8 -3 -19 -36 -27 -81 -7 -42 -17 -79 -22
-82 -10 -7 -67 116 -109 237 l-31 89 -34 -70 c-35 -73 -100 -152 -145 -175
-25 -14 -29 -12 -125 69 -184 155 -355 345 -495 552 l-75 113 -55 -43z m71
-208 c32 -50 90 -113 200 -217 287 -270 340 -331 340 -385 0 -8 -34 -40 -75
-71 -121 -91 -195 -190 -241 -325 -18 -52 -22 -76 -15 -83 19 -19 12 -47 -15
-57 -14 -6 -47 -10 -73 -10 -62 0 -86 25 -95 99 -17 129 -82 236 -253 413
-168 173 -180 205 -117 331 74 147 253 376 294 376 3 0 25 -32 50 -71z m-742
-110 c5 -7 20 -38 32 -68 42 -100 145 -242 300 -410 182 -198 247 -281 300
-384 43 -84 51 -134 23 -158 -21 -18 -332 -73 -360 -64 -10 3 -29 26 -42 50
-39 74 -124 160 -285 285 -160 126 -233 196 -285 274 -18 26 -34 47 -37 47
-18 0 -45 -25 -67 -63 -14 -24 -47 -63 -74 -88 l-48 -44 -3 27 c-5 46 93 212
204 343 90 105 282 265 319 265 7 0 17 -6 23 -12z m-605 -258 c20 -49 37 -95
37 -102 0 -7 -18 -50 -41 -96 -22 -45 -51 -125 -64 -177 -28 -109 -39 -133
-110 -235 -89 -127 -157 -280 -184 -412 -29 -142 -32 -338 -6 -447 5 -21 4
-23 -8 -12 -29 24 -58 114 -83 258 -46 274 -43 449 12 611 32 97 147 325 225
451 72 114 169 251 179 251 4 0 23 -40 43 -90z m2952 -36 c82 -49 107 -82 85
-109 -21 -25 -41 -17 -90 36 -27 30 -52 49 -59 45 -6 -4 -11 -33 -11 -64 0
-38 -6 -66 -17 -82 -45 -66 -53 -50 -53 99 0 141 7 162 47 136 12 -8 57 -36
98 -61z m692 55 c8 -8 3 -28 -18 -73 -61 -130 -62 -299 -4 -436 57 -135 76
-218 82 -355 7 -150 -12 -396 -33 -437 -8 -15 -14 -44 -14 -65 0 -21 -11 -60
-24 -88 -27 -58 -153 -223 -235 -309 -58 -61 -170 -150 -179 -142 -2 3 12 32
32 65 151 248 196 448 162 726 -33 279 -118 510 -273 744 l-56 83 16 33 c55
115 483 315 544 254z m-1379 -236 c29 -73 64 -180 77 -239 22 -100 23 -110 9
-138 -24 -49 -319 -310 -353 -314 -28 -3 -295 89 -328 114 -15 10 -18 27 -18
91 0 145 63 232 297 414 70 54 148 124 175 154 70 82 77 78 141 -82z m276 -17
c54 -60 101 -146 90 -164 -16 -26 -175 -143 -188 -139 -11 4 -20 39 -32 123
-5 33 0 52 25 102 17 34 31 70 31 80 0 44 33 43 74 -2z m-3584 -306 c158 -157
348 -374 408 -465 21 -32 37 -84 66 -218 20 -97 35 -181 31 -187 -10 -16 -65
-12 -192 14 -180 37 -296 87 -357 155 -23 25 -43 27 -68 4 -14 -13 -18 -31
-18 -87 0 -71 -13 -117 -24 -86 -17 48 -38 301 -46 554 -10 321 -22 403 -86
571 -12 31 101 -69 286 -255z m4081 148 c118 -178 206 -385 246 -584 25 -126
25 -422 0 -514 -54 -198 -213 -430 -454 -660 -81 -77 -122 -110 -136 -108 -17
2 -25 22 -48 108 -15 58 -41 141 -59 185 -44 111 -151 316 -168 323 -26 10
-47 -14 -55 -64 -16 -92 -43 -97 -87 -16 -43 82 -113 163 -197 230 -107 85
-118 103 -118 187 0 124 73 252 232 406 104 101 760 612 774 603 4 -2 36 -46
70 -96z m-2636 -99 c301 -242 379 -327 410 -444 22 -85 30 -263 13 -294 -7
-13 -59 -52 -115 -86 -209 -129 -324 -239 -396 -383 -52 -103 -71 -195 -65
-308 2 -41 0 -74 -3 -74 -25 0 -144 98 -240 197 -130 134 -186 214 -230 326
-127 329 -29 737 246 1020 72 74 191 167 215 167 9 0 83 -54 165 -121z m1130
-415 c66 -8 152 -22 190 -30 90 -19 191 -66 200 -93 4 -13 -7 -46 -31 -96 -22
-45 -39 -98 -43 -130 -3 -31 -9 -55 -14 -55 -12 0 -265 128 -352 178 -95 55
-177 133 -194 185 -7 21 -18 36 -24 34 -7 -2 -33 -34 -58 -72 -46 -70 -79 -98
-161 -141 -63 -32 -76 -30 -94 11 -14 35 -19 120 -8 150 11 28 60 45 127 45
36 0 80 7 98 15 46 19 212 19 364 -1z m-168 -278 c54 -35 180 -107 281 -160
212 -111 306 -172 398 -258 68 -64 136 -155 146 -196 4 -13 0 -30 -10 -42 -11
-12 -172 -76 -417 -165 -579 -212 -704 -279 -815 -438 -119 -169 -118 -335 4
-531 25 -39 54 -80 65 -90 38 -35 22 -37 -41 -5 -87 43 -252 210 -344 349
-171 257 -281 579 -272 796 3 81 8 100 40 165 44 88 122 178 217 248 50 37
629 386 648 390 1 1 46 -28 100 -63z m2898 -137 c44 -18 61 -31 63 -47 3 -17
-4 -23 -39 -32 -88 -24 -165 -95 -220 -202 -16 -31 -44 -112 -63 -180 -45
-158 -67 -221 -101 -288 -45 -90 -138 -218 -242 -334 -271 -304 -536 -457
-818 -473 -94 -5 -224 8 -253 26 -9 5 -4 26 19 79 34 82 59 198 59 275 l0 52
92 89 c135 129 278 255 320 283 20 14 78 43 130 65 166 72 237 134 408 359
174 230 234 288 347 335 78 33 208 30 298 -7z m-5265 -119 c28 -11 138 -38
244 -59 329 -67 418 -114 537 -284 94 -133 246 -283 381 -376 60 -40 117 -87
127 -105 11 -17 37 -78 59 -136 82 -220 193 -404 331 -552 45 -47 81 -91 81
-97 0 -34 -249 -17 -440 29 -198 49 -444 139 -551 203 -76 45 -210 157 -325
272 -303 303 -476 658 -500 1024 -4 56 -4 101 -1 101 3 0 29 -9 57 -20z m3457
-495 c126 -236 147 -597 48 -812 -72 -158 -404 -364 -675 -418 -64 -13 -116
-16 -220 -12 -158 5 -227 21 -360 84 -116 54 -169 106 -231 229 -37 74 -44 97
-47 159 -4 62 0 82 21 128 47 102 141 184 318 274 126 65 231 107 549 218 246
85 450 166 510 200 39 22 53 15 87 -50z"/>
</g>
</svg>
