<?xml version="1.0" standalone="no"?>
<!DOCTYPE svg PUBLIC "-//W3C//DTD SVG 20010904//EN"
 "http://www.w3.org/TR/2001/REC-SVG-20010904/DTD/svg10.dtd">
<svg version="1.0" xmlns="http://www.w3.org/2000/svg"
 width="1280.000000pt" height="1280.000000pt" viewBox="0 0 1280.000000 1280.000000"
 preserveAspectRatio="xMidYMid meet">
<metadata>
Created by potrace 1.15, written by Peter Selinger 2001-2017
</metadata>
<g transform="translate(0.000000,1280.000000) scale(0.100000,-0.100000)"
fill="#000000" stroke="none">
<path d="M6123 12122 c-103 -83 -203 -211 -270 -349 -25 -51 -47 -111 -50
-133 -7 -49 9 -72 147 -215 53 -55 120 -129 149 -163 86 -105 141 -236 141
-333 0 -27 6 -51 14 -58 16 -14 173 -37 183 -27 4 4 10 55 13 114 5 97 9 113
39 169 39 73 92 130 214 231 71 60 87 78 87 101 0 50 -55 109 -348 379 -113
105 -181 188 -223 275 -13 26 -28 47 -35 47 -7 0 -34 -17 -61 -38z"/>
<path d="M5380 11901 c-173 -122 -334 -304 -430 -486 -29 -54 -40 -125 -21
-125 23 0 82 63 178 190 2 2 16 -11 31 -30 59 -79 185 -199 317 -305 156 -126
202 -171 260 -262 51 -79 77 -91 142 -68 27 10 94 20 153 24 l104 6 24 35 c60
88 -17 226 -291 524 -178 193 -249 288 -304 406 -25 52 -48 102 -52 110 -14
28 -54 21 -111 -19z"/>
<path d="M4785 11753 c-120 -119 -321 -506 -383 -738 -24 -91 -27 -116 -26
-280 0 -156 4 -198 28 -313 34 -168 64 -255 90 -260 18 -4 19 0 10 74 -35 307
47 634 208 834 61 76 81 119 108 233 24 106 40 144 80 200 l31 43 -35 66 c-19
36 -40 91 -47 122 -7 31 -15 56 -19 56 -4 0 -24 -17 -45 -37z"/>
<path d="M8465 11735 c-188 -30 -373 -125 -503 -258 l-43 -44 67 -99 c170
-249 304 -660 304 -930 0 -178 -69 -386 -192 -582 -22 -34 -38 -66 -35 -69 18
-17 70 19 166 115 117 117 285 328 325 407 40 78 67 260 68 445 1 180 -15 270
-69 400 -83 201 -81 351 6 524 56 111 52 115 -94 91z"/>
<path d="M7717 11643 c-4 -3 -7 -24 -7 -45 0 -21 -9 -55 -20 -75 -34 -64 -23
-126 19 -103 30 15 41 49 41 123 l1 62 64 -67 c68 -72 91 -81 120 -48 24 26
15 36 -98 104 -92 56 -108 62 -120 49z"/>
<path d="M7003 11544 c-21 -25 -101 -97 -178 -159 -77 -61 -168 -142 -202
-178 -104 -112 -153 -241 -120 -320 19 -45 59 -70 146 -92 36 -9 101 -32 143
-52 l78 -36 133 129 c73 71 149 140 170 154 51 34 71 80 64 146 -6 59 -79 285
-125 387 -38 83 -55 86 -109 21z"/>
<path d="M3427 11537 c-3 -7 17 -62 44 -123 92 -207 127 -399 115 -633 -11
-233 27 -508 86 -630 28 -59 32 -63 44 -46 18 25 18 59 -2 97 -14 28 -14 36
-1 87 8 31 18 73 22 94 3 20 8 37 10 37 2 0 38 -22 80 -49 42 -28 102 -60 133
-71 48 -19 381 -85 388 -77 5 6 -54 335 -64 353 -6 12 -10 43 -10 70 1 29 -6
65 -17 87 -29 63 -269 343 -434 507 -146 146 -345 310 -375 310 -8 0 -16 -6
-19 -13z"/>
<path d="M7312 11508 c-7 -7 -12 -25 -12 -41 0 -15 -5 -37 -10 -48 -19 -35
-28 -112 -20 -168 13 -92 29 -141 46 -141 9 0 44 22 78 49 33 26 80 60 104 75
33 21 42 32 42 54 0 38 -46 106 -119 175 -59 57 -86 68 -109 45z"/>
<path d="M7737 11316 c-37 -36 -118 -102 -180 -148 -61 -46 -175 -131 -252
-189 -179 -134 -315 -267 -393 -386 -69 -106 -95 -174 -94 -250 1 -70 23 -108
95 -157 74 -50 156 -139 197 -213 38 -67 68 -103 86 -103 19 0 44 40 44 70 0
52 46 67 75 24 74 -114 154 -310 194 -481 29 -124 29 -124 110 -56 264 219
477 510 543 740 19 67 23 102 22 248 0 126 -4 192 -18 255 -29 137 -84 297
-143 415 -66 134 -172 289 -199 292 -12 2 -45 -22 -87 -61z"/>
<path d="M5043 11263 c-293 -236 -382 -374 -443 -688 -59 -306 12 -532 245
-783 94 -101 231 -212 263 -212 l28 0 -4 96 c-5 117 8 185 54 280 70 143 193
261 383 369 126 71 152 99 159 164 6 69 -31 223 -75 312 -46 92 -116 166 -269
285 -70 54 -155 126 -190 161 -36 35 -71 63 -79 63 -8 0 -40 -21 -72 -47z"/>
<path d="M6071 10785 c-18 -8 -59 -15 -90 -15 -76 -1 -128 -14 -157 -41 -20
-19 -24 -31 -23 -83 1 -99 12 -150 32 -154 29 -6 139 52 184 95 22 23 53 62
68 87 33 57 55 59 79 6 27 -63 90 -109 321 -234 232 -127 245 -130 245 -62 0
48 28 135 62 190 39 64 33 91 -27 117 -164 72 -609 133 -694 94z"/>
<path d="M6045 10500 c-38 -26 -146 -90 -240 -141 -220 -119 -327 -193 -414
-284 -122 -129 -171 -242 -171 -394 0 -145 59 -345 165 -558 78 -158 163 -280
275 -392 87 -87 225 -191 254 -191 23 0 20 24 -5 46 -39 34 -118 155 -140 213
-33 86 -37 211 -10 297 69 223 296 353 1093 628 234 81 252 103 178 214 -89
132 -216 228 -529 394 -113 61 -241 134 -283 164 -43 30 -83 54 -90 53 -7 0
-44 -22 -83 -49z"/>
<path d="M8881 10369 c-118 -23 -212 -105 -392 -340 -150 -198 -248 -292 -359
-348 -45 -22 -92 -41 -103 -41 -46 0 -107 -43 -191 -135 -48 -52 -130 -126
-182 -165 -52 -39 -98 -79 -103 -88 -5 -9 -12 -48 -16 -87 -9 -88 -36 -194
-71 -281 l-27 -68 23 -18 c15 -13 39 -18 78 -18 31 0 71 -5 89 -12 74 -27 300
28 460 112 131 68 229 145 383 300 222 223 335 409 406 670 20 74 49 163 64
197 36 79 107 151 185 187 85 38 90 41 93 60 4 21 -63 52 -156 71 -74 16 -115
17 -181 4z"/>

<path d="M3800 10245 c-17 -21 -6 -161 20 -275 106 -448 330 -775 743 -1084
114 -84 196 -126 346 -176 256 -86 628 -156 694 -131 46 18 39 36 -43 127
-144 157 -263 353 -340 559 -23 60 -49 122 -58 138 -9 15 -64 60 -122 100
-138 95 -282 234 -361 350 -87 125 -142 178 -231 220 -101 48 -186 73 -318 92
-131 19 -226 46 -263 75 -30 24 -50 25 -67 5z"/>
<path d="M7235 9794 c-51 -40 -195 -101 -411 -174 -390 -132 -721 -275 -835
-360 -107 -79 -152 -167 -151 -295 1 -338 365 -550 825 -480 232 35 493 160
624 298 192 202 213 606 50 937 -45 90 -64 104 -102 74z"/>
</g>
</svg>
