<?xml version="1.0" encoding="utf-8"?>
<!-- Svg Vector Icons : http://www.onlinewebfonts.com/icon -->
<!DOCTYPE svg PUBLIC "-//W3C//DTD SVG 1.1//EN" "http://www.w3.org/Graphics/SVG/1.1/DTD/svg11.dtd">
<svg version="1.1" xmlns="http://www.w3.org/2000/svg" xmlns:xlink="http://www.w3.org/1999/xlink" x="0px" y="0px" viewBox="0 0 1000 1000" enable-background="new 0 0 1000 1000" xml:space="preserve">
<metadata> Svg Vector Icons : http://www.onlinewebfonts.com/icon </metadata>
<g><g transform="translate(0.000000,511.000000) scale(0.100000,-0.100000)"><path d="M4658.8,2721.6c-275-37.6-573.7-130.6-822.9-255.2c-445.1-221.6-882.3-635-1117.7-1058.3c-63.3-112.8-79.1-128.6-144.4-140.4C619.4,941.2-320.2,268.7,279.2-374.2c65.3-69.2,180-166.2,255.2-217.6c385.7-255.2,1060.3-486.6,1847.6-629c152.3-29.7,340.2-65.3,415.4-81.1c435.2-91,2158.2-136.5,3353-89c613.2,25.7,781.4,43.5,1252.2,128.6c1366.9,253.2,2223.5,623.1,2451,1058.3c63.3,122.7,61.3,310.6-2,435.2c-211.7,403.6-1054.4,785.3-2203.7,997c-150.4,29.7-277,51.4-280.9,51.4s-39.6,57.4-79.1,128.6c-239.4,429.3-672.6,836.8-1133.5,1066.2c-174.1,87-433.2,176-646.9,219.6C5319.5,2733.5,4850.7,2749.3,4658.8,2721.6z M2520.4,850.2c-7.9-19.8-31.7-114.7-53.4-213.6c-33.6-144.4-41.5-247.3-43.5-544c-2-464.9,5.9-502.4,110.8-555.9c116.7-59.3,403.5-128.6,688.4-164.2C4095-736.2,5873.4-748.1,6817-649.2c336.3,35.6,708.2,91,739.8,108.8c71.2,45.5,120.7,629.1,79.1,951.5c-13.8,102.9-39.6,253.2-61.3,332.3L7539,885.9l61.3-13.8c340.3-73.2,939.6-338.3,1115.7-492.6c114.7-100.9,203.8-261.1,203.8-364c-2-275-332.3-530.2-973.3-751.7c-470.8-162.2-888.2-239.4-1628-302.7c-395.6-33.6-2081-33.6-2522.2,0C2918-969.7,2364.1-854.9,1834-627.4c-427.3,182-668.6,415.4-668.6,640.9c2,298.7,383.8,571.7,1127.6,803.1C2542.2,893.8,2538.2,891.8,2520.4,850.2z"/><path d="M3197-1782.7c286.8-277,613.2-476.7,971.3-597.4c965.4-320.5,2035.5-61.3,2733.8,662.7l108.8,112.8l-108.8-11.9c-765.6-81.1-2797.1-81.1-3758.5,0l-128.6,9.9L3197-1782.7z"/></g></g>
</svg>